<svg id="Слой_1" data-name="Слой 1" xmlns="http://www.w3.org/2000/svg" viewBox="0 0 30 60"><title>1</title><path d="M24.13,47.3a1,1,0,0,0-1.39.25A1,1,0,0,0,23,48.94l8.2,5.74a1,1,0,0,0,1.39-.25A1,1,0,0,0,32.32,53Z" transform="translate(-17 -9)"/><path d="M40.94,43.25,31,53.15a1,1,0,0,0,1.42,1.42l9.9-9.9a1,1,0,0,0-1.42-1.42Z" transform="translate(-17 -9)"/><path d="M32,9a1,1,0,0,0-1,1v8.81a3.69,3.69,0,0,0-1.16.61l-12.43,10L17,29.8V67.9A1.1,1.1,0,0,0,18.1,69H45.9A1.1,1.1,0,0,0,47,67.9V29.69L34.16,19.42A3.69,3.69,0,0,0,33,18.81V10A1,1,0,0,0,32,9Zm0,19a1,1,0,0,0,1-1v-.72a2,2,0,1,1-2.73.73,2,2,0,0,1,.73-.73V27A1,1,0,0,0,32,28Zm13,2.68V67H19V30.68l12-9.62v3.08a4,4,0,1,0,2,0V21.06Z" transform="translate(-17 -9)"/></svg>