<svg width="0" height="0" class="hidden">
  <symbol xmlns="http://www.w3.org/2000/svg" viewBox="0 0 30 60" id="icon-2">
    <title>5</title>
    <path d="M15 0a1 1 0 0 0-1 1v8.81a3.69 3.69 0 0 0-1.16.61l-12.43 10-.41.38v38.1A1.1 1.1 0 0 0 1.1 60h27.8a1.1 1.1 0 0 0 1.1-1.1V20.69L17.16 10.42A3.69 3.69 0 0 0 16 9.81V1a1 1 0 0 0-1-1zm0 19a1 1 0 0 0 1-1v-.72a2 2 0 1 1-2.73.73 2 2 0 0 1 .73-.73V18a1 1 0 0 0 1 1zm13 2.68V58H2V21.68l12-9.62v3.08a4 4 0 1 0 2 0v-3.08z"></path>
    <text transform="matrix(.68 0 0 1 4.13 45.11)" font-size="14" font-family="Arial-BoldMT,Arial" font-weight="700">NEW</text>
  </symbol>
  <symbol xmlns="http://www.w3.org/2000/svg" viewBox="0 0 30 60" id="icon-3">
    <title>3</title>
    <path d="M15 0a1 1 0 0 0-1 1v8.81a3.69 3.69 0 0 0-1.16.61l-12.43 10-.41.38v38.1A1.1 1.1 0 0 0 1.1 60h27.8a1.1 1.1 0 0 0 1.1-1.1V20.69L17.16 10.42A3.69 3.69 0 0 0 16 9.81V1a1 1 0 0 0-1-1zm0 19a1 1 0 0 0 1-1v-.72a2 2 0 1 1-2.73.73 2 2 0 0 1 .73-.73V18a1 1 0 0 0 1 1zm13 2.68V58H2V21.68l12-9.62v3.08a4 4 0 1 0 2 0v-3.08z"></path>
    <path d="M22.12 38a6.94 6.94 0 0 0-13.87 0v.7c0 3.83 6.93 12.4 6.93 12.4s6.94-8.57 6.94-12.4V38zm-6.94 3.52a3.22 3.22 0 1 1 3.22-3.22 3.22 3.22 0 0 1-3.22 3.23z"></path>
  </symbol>
  <symbol xmlns="http://www.w3.org/2000/svg" viewBox="0 0 30 60" id="icon-4">
    <title>2</title>
    <path d="M15 0a1 1 0 0 0-1 1v8.81a3.69 3.69 0 0 0-1.16.61l-12.43 10-.41.38v38.1A1.1 1.1 0 0 0 1.1 60h27.8a1.1 1.1 0 0 0 1.1-1.1V20.69L17.16 10.42A3.69 3.69 0 0 0 16 9.81V1a1 1 0 0 0-1-1zm0 19a1 1 0 0 0 1-1v-.72a2 2 0 1 1-2.73.73 2 2 0 0 1 .73-.73V18a1 1 0 0 0 1 1zm13 2.68V58H2V21.68l12-9.62v3.08a4 4 0 1 0 2 0v-3.08z"></path>
    <path d="M15.5 32.08l2.73 5.52 6.1.89-4.42 4.3 1.04 6.08L15.5 46l-5.46 2.87 1.05-6.08-4.42-4.3 6.1-.89 2.73-5.52z"></path>
  </symbol>
  <symbol xmlns="http://www.w3.org/2000/svg" viewBox="0 0 30 60" id="icon-5">
    <title>4</title>
    <path d="M7.298 47.294L23.3 31.292l1.414 1.414L8.712 48.708zM11 39a4 4 0 1 0-4-4 4 4 0 0 0 4 4zm0-6a2 2 0 1 1-2 2 2 2 0 0 1 2-2zm9 9a4 4 0 1 0 4 4 4 4 0 0 0-4-4zm0 6a2 2 0 1 1 2-2 2 2 0 0 1-2 2z"></path>
    <path d="M15 0a1 1 0 0 0-1 1v8.81a3.69 3.69 0 0 0-1.16.61l-12.43 10-.41.38v38.1A1.1 1.1 0 0 0 1.1 60h27.8a1.1 1.1 0 0 0 1.1-1.1V20.69L17.16 10.42A3.69 3.69 0 0 0 16 9.81V1a1 1 0 0 0-1-1zm0 19a1 1 0 0 0 1-1v-.72a2 2 0 1 1-2.73.73 2 2 0 0 1 .73-.73V18a1 1 0 0 0 1 1zm13 2.68V58H2V21.68l12-9.62v3.08a4 4 0 1 0 2 0v-3.08z"></path>
  </symbol>
  <symbol xmlns="http://www.w3.org/2000/svg" viewBox="0 0 30 60" id="icon-1">
    <title>1</title>
    <path d="M7.13 38.3a1 1 0 0 0-1.39.25A1 1 0 0 0 6 39.94l8.2 5.74a1 1 0 0 0 1.39-.25 1 1 0 0 0-.27-1.43z"></path>
    <path d="M23.94 34.25L14 44.15a1.004 1.004 0 0 0 1.42 1.42l9.9-9.9a1.004 1.004 0 0 0-1.42-1.42z"></path>
    <path d="M15 0a1 1 0 0 0-1 1v8.81a3.69 3.69 0 0 0-1.16.61l-12.43 10-.41.38v38.1A1.1 1.1 0 0 0 1.1 60h27.8a1.1 1.1 0 0 0 1.1-1.1V20.69L17.16 10.42A3.69 3.69 0 0 0 16 9.81V1a1 1 0 0 0-1-1zm0 19a1 1 0 0 0 1-1v-.72a2 2 0 1 1-2.73.73 2 2 0 0 1 .73-.73V18a1 1 0 0 0 1 1zm13 2.68V58H2V21.68l12-9.62v3.08a4 4 0 1 0 2 0v-3.08z"></path>
  </symbol>
</svg>